# xmcd
#
# Track frame offsets: 
#        150
#        18331
#        31563
#        47048
#        62362
#        83368
#        97785
#        111799
#        125941
#        145772
#
# Disc length: 2155 seconds
#
# Revision: 0
# Processed by: cddbd v1.5.2PL0 Copyright (c) Steve Scherf et al.
# Submitted via: ExactAudioCopyFreeDBPlugin 1.0
#
DISCID=6e08690a
DTITLE=อรวี - ไข่มุกบูรพา 1
DYEAR=1900
DGENRE=pop
TTITLE0=เธอเพียงคนเดียว
TTITLE1=อยู่นานๆได้ไหม
TTITLE2=รักไร้ใจ
TTITLE3=ห้องสีเทา
TTITLE4=รักสุมทรวง
TTITLE5=ความเหงาดั่งเงาใจ
TTITLE6=ไม่ลืม
TTITLE7=เธอรู้ไหมฉันรักใคร
TTITLE8=นาฬิกาใจ
TTITLE9=Good Bye My Love
EXTD=
EXTT0=
EXTT1=
EXTT2=
EXTT3=
EXTT4=
EXTT5=
EXTT6=
EXTT7=
EXTT8=
EXTT9=
PLAYORDER=
